<?xml version="1.0" standalone="no"?>
<!DOCTYPE svg PUBLIC "-//W3C//DTD SVG 1.1//EN" "http://www.w3.org/Graphics/SVG/1.1/DTD/svg11.dtd" >
<svg xmlns="http://www.w3.org/2000/svg">
<metadata>Generated by IcoMoon</metadata>
<defs>
<font id="icomoon" horiz-adv-x="1024">
<font-face units-per-em="1024" ascent="960" descent="-64" />
<missing-glyph horiz-adv-x="1024" />
<glyph unicode="&#x20;" horiz-adv-x="512" d="" />
<glyph unicode="&#xe900;" d="M80.225 80.725c-19.723 0-38.38 0-58.103 0-2.665 95.95-5.864 191.9-8.529 287.85 25.054 0 50.107 0 75.161 0-2.665-96.483-5.331-191.9-8.529-287.85z" />
<glyph unicode="&#xe901;" d="M949.639 317.401c18.124 0 35.715 0 54.372 0 2.665-92.219 4.798-184.437 7.463-276.656-22.921 0-45.843 0-68.764 0 2.132 91.686 4.264 183.904 6.93 276.656z" />
<glyph unicode="&#xe902;" glyph-name="home3" d="M1024 352l-192 192v288h-128v-160l-192 192-512-512v-32h128v-320h320v192h128v-192h320v320h128z" />
<glyph unicode="&#xe903;" d="M976.825-64.8c-7.996 0-15.992 0-23.988 0-11.727 0-19.723 5.864-22.921 17.591-2.665 10.661-1.066 19.723 6.93 27.719 3.731 4.264 9.062 5.864 14.926 5.864 17.058 0 34.116 0 51.173 0 11.727 0 20.789-9.062 22.388-21.855 1.066-9.062-1.066-17.058-7.463-23.454-3.731-4.264-9.062-6.397-14.926-6.397-9.062 0.533-17.591 0.533-26.12 0.533z" />
<glyph unicode="&#xe904;" d="M51.44 420.814c-7.996 0-15.992 0.533-23.988 0-13.859-0.533-22.388 10.128-23.988 20.789-1.066 7.996 0 15.459 5.331 22.388 4.264 5.864 10.128 8.529 17.591 8.529 16.525 0 32.516 0 49.041 0 12.26 0 20.256-6.397 23.454-18.124 2.665-10.128 0.533-18.657-6.397-26.653-3.731-4.264-9.062-6.397-14.926-6.397-9.062-0.533-17.591-0.533-26.12-0.533z" />
<glyph unicode="&#xe905;" d="M976.825 368.575c-6.93 0-13.859 0-21.322 0-11.194 0-18.657 5.864-21.322 16.525-2.132 9.062-0.533 17.058 5.331 23.988 3.731 4.264 8.529 5.864 13.859 5.864 14.393 0 28.252-0.533 42.644 0 17.058 0.533 23.988-13.859 22.921-25.587-1.066-9.062-4.798-16.525-14.393-20.256-2.132-0.533-4.264-1.066-6.397-1.066-6.397 0-13.859 0.533-21.322 0.533z" />
<glyph unicode="&#xe906;" d="M51.44 29.018c6.93 0 13.859 0 20.256 0 11.727 0 19.19-5.864 21.855-17.058 2.132-9.595 0-18.124-7.463-24.521-3.731-3.198-7.996-4.264-12.793-4.264-14.393 0-28.785 0.533-43.178 0-12.793-0.533-20.789 9.062-21.855 19.723-1.066 7.463 0.533 13.859 5.331 19.723 3.731 4.264 8.529 6.93 14.393 6.93 7.996-0.533 15.992-0.533 23.454-0.533z" />
<glyph unicode="&#xe907;" d="M89.82 402.157c0-4.798 0-9.062 0-13.859-25.587 0-50.64 0-76.227 0 0 4.264-0.533 9.062-0.533 13.859 25.587 0 51.173 0 76.76 0z" />
<glyph unicode="&#xe908;" d="M1012.006 20.489c0-4.264 0-8.529 0-12.26-23.454 0-46.376 0-69.83 0 0 4.264 0 7.996 0 12.26 22.921 0 45.843 0 69.83 0z" />
<glyph unicode="&#xe909;" d="M79.692 60.469c0-4.264 0-7.996 0-11.727-18.657 0-37.314 0-56.504 0 0 3.731 0 7.996 0 11.727 18.657 0 37.314 0 56.504 0z" />
<glyph unicode="&#xe90a;" d="M950.705 348.852c17.591 0 35.182 0 52.773 0 0-3.731 0-7.463 0-11.727-17.591 0-35.182 0-52.773 0 0 3.731 0 7.463 0 11.727z" />
<glyph unicode="&#xe90b;" d="M459.761 616.979c-31.45 1.066-57.57 12.26-75.694 38.38-18.657 27.186-15.992 62.901 5.864 87.421 20.256 22.921 45.843 32.516 76.227 30.917 21.855-1.066 41.045-9.595 57.57-24.521 30.917-28.252 31.983-75.694 2.132-105.545-17.058-17.058-37.847-25.587-61.834-27.186-1.599 0.533-3.198 0.533-4.264 0.533zM453.364 622.309c25.054 0 42.111 4.798 57.57 15.459 38.913 26.653 42.644 77.293 7.996 109.276-33.049 30.384-89.553 29.318-121.537-2.665-26.12-26.12-28.252-65.033-4.264-92.752 17.591-20.256 39.979-29.318 60.235-29.318z" />
<glyph unicode="&#xe90c;" d="M647.929 727.321c17.591-0.533 33.583-7.463 44.777-23.454 13.326-18.657 10.128-42.644-7.463-59.169-22.921-21.322-62.901-19.19-82.624 5.331-17.591 21.855-12.26 52.239 12.26 68.231 9.595 5.864 20.256 8.529 33.049 9.062zM646.863 721.991c-11.194 0-20.789-2.665-29.851-8.529-23.454-15.459-26.653-45.843-6.93-65.033 18.657-18.124 51.173-18.657 70.896-1.066 18.124 16.525 19.723 41.578 2.665 59.169-9.595 10.661-22.388 15.459-36.781 15.459z" />
<glyph unicode="&#xe90d;" d="M537.587 588.194c0 2.665 0 4.798 0 7.463 19.723 0 39.446 0 59.702 0 0-2.665 0-4.798 0-7.463-20.256 0-39.979 0-59.702 0z" />
<glyph unicode="&#xe90e;" glyph-name="images" horiz-adv-x="1152" d="M1088 832h-64v64c0 35.2-28.8 64-64 64h-896c-35.2 0-64-28.8-64-64v-768c0-35.2 28.8-64 64-64h64v-64c0-35.2 28.8-64 64-64h896c35.2 0 64 28.8 64 64v768c0 35.2-28.8 64-64 64zM128 768v-640h-63.886c-0.040 0.034-0.082 0.076-0.114 0.116v767.77c0.034 0.040 0.076 0.082 0.114 0.114h895.77c0.040-0.034 0.082-0.076 0.116-0.116v-63.884h-768c-35.2 0-64-28.8-64-64v0zM1088 0.116c-0.034-0.040-0.076-0.082-0.116-0.116h-895.77c-0.040 0.034-0.082 0.076-0.114 0.116v767.77c0.034 0.040 0.076 0.082 0.114 0.114h895.77c0.040-0.034 0.082-0.076 0.116-0.116v-767.768zM960 608c0-53.020-42.98-96-96-96s-96 42.98-96 96 42.98 96 96 96 96-42.98 96-96zM1024 64h-768v128l224 384 256-320h64l224 192z" />
<glyph unicode="&#xe90f;" glyph-name="camera" d="M304 352c0-114.876 93.124-208 208-208s208 93.124 208 208-93.124 208-208 208-208-93.124-208-208zM960 704h-224c-16 64-32 128-96 128h-256c-64 0-80-64-96-128h-224c-35.2 0-64-28.8-64-64v-576c0-35.2 28.8-64 64-64h896c35.2 0 64 28.8 64 64v576c0 35.2-28.8 64-64 64zM512 68c-156.85 0-284 127.148-284 284 0 156.85 127.15 284 284 284 156.852 0 284-127.15 284-284 0-156.852-127.146-284-284-284zM960 512h-128v64h128v-64z" />
<glyph unicode="&#xe910;" d="M519.996 39.679c0 92.752 0 184.97 0 278.255 128.466 4.264 257.466 8.529 386.465 12.26 0-101.281 0-201.495 0-302.776-128.466 3.731-257.466 7.996-386.465 12.26zM898.465 35.415c0 95.95 0 190.834 0 286.784-123.669-3.731-246.805-7.996-370.474-11.727 0-87.954 0-175.375 0-262.796 123.669-4.264 246.805-8.529 370.474-12.26z" />
<glyph unicode="&#xe911;" d="M502.938 335.525c0 16.525 0 32.516 0 49.041-134.33 3.731-268.66 7.996-402.457 11.727 0-114.074 0-227.615 0-341.689 131.665 4.798 262.796 9.595 394.994 14.393 0-15.992 0-31.45 0-47.442 145.524-4.798 290.515-9.595 436.040-13.859 0 114.074 0 227.615 0 341.689-142.859-4.798-285.718-9.062-428.577-13.859zM480.55 86.055c-119.404-4.264-239.342-9.062-359.28-13.326 0 101.814 0 203.094 0 305.441 119.938-3.731 239.342-6.93 359.28-10.661 0-93.818 0-187.636 0-281.453zM906.461 27.419c-128.466 4.264-257.466 8.529-386.465 12.26 0 92.752 0 184.97 0 278.255 128.466 4.264 257.466 8.529 386.465 12.26 0-101.281 0-202.028 0-302.776z" />
<glyph unicode="&#xe912;" d="M206.026 475.719c34.649 27.719 69.83 54.905 104.479 82.624 8.529 6.397 16.525 13.326 25.054 19.723-9.062 14.393-18.657 28.785-27.719 43.711-48.508-29.851-96.483-59.702-144.458-89.553-0.533 0.533-1.066 0.533-1.066 1.066-18.657 13.326-41.578 12.26-59.702-1.599-26.653-20.256-22.388-63.434 7.996-76.227 1.066-0.533 1.599-2.132 2.132-3.198 1.066-3.731 1.066-7.463 2.665-10.661 7.996-21.855 33.583-33.583 56.504-26.12 23.988 7.463 41.045 31.983 32.516 58.103-0.533 0.533 0.533 1.066 1.599 2.132zM194.299 473.054c5.864-14.393 3.731-27.719-6.93-39.446-14.393-15.459-39.446-17.591-54.905-3.731-7.463 6.397-10.661 14.393-11.194 23.988 0 1.599 0 2.665-0.533 3.731s-1.066 2.132-2.132 2.665c-17.058 5.864-24.521 18.124-25.054 32.516-0.533 17.058 8.529 29.851 23.988 36.248 15.992 6.397 30.384 3.198 42.644-7.996 0.533-0.533 0.533-0.533 1.599-1.066 47.442 29.318 94.884 59.169 142.326 88.487 6.397-9.595 12.26-19.19 18.657-29.318-7.463-5.864-14.926-11.727-22.388-17.591-34.116-27.186-69.297-54.905-104.479-82.624-2.132-1.599-2.665-2.665-1.599-5.864z" />
<glyph unicode="&#xe913;" d="M942.176 910.692c-2.132 1.066-3.198 2.665-3.731 5.331-0.533 7.463-3.198 14.393-7.996 20.256-11.194 14.393-26.12 19.723-44.244 18.124-28.252-3.198-47.975-31.45-40.512-58.636 0.533-2.132 0-2.665-1.599-4.264-35.715-27.719-70.896-55.438-106.611-83.69-7.463-5.864-15.459-12.26-23.454-18.657 9.062-14.393 18.657-28.785 27.719-43.711 1.066 0.533 1.599 1.066 2.132 1.599 46.376 28.785 93.285 57.57 139.661 86.355 1.599 1.066 2.665 1.599 4.798 0 17.058-11.727 34.649-12.26 52.773-2.132 15.992 9.062 23.988 22.921 23.988 41.578 0 17.058-7.996 29.851-22.921 37.847zM946.44 847.259c-15.459-15.992-38.913-17.058-55.438-2.132-1.066 0.533-1.599 1.599-2.665 2.132-47.442-29.318-94.884-58.636-142.859-87.954-6.397 9.595-12.26 19.19-18.657 29.318 6.93 5.331 14.393 11.194 21.322 16.525 35.715 28.252 71.429 55.971 107.677 84.223 1.599 1.066 2.132 2.132 1.066 3.731-10.661 23.454 4.798 47.975 28.252 52.239 14.393 2.665 26.653-1.066 36.781-12.26 5.331-5.864 7.463-13.326 7.996-20.789 0-1.599 0-3.198 0-5.331 2.132-1.066 4.264-2.132 6.397-2.665 23.454-10.128 26.12-39.979 10.128-57.037z" />
<glyph unicode="&#xe914;" glyph-name="video-camera" d="M384 672c0 88.366 71.634 160 160 160s160-71.634 160-160c0-88.366-71.634-160-160-160s-160 71.634-160 160zM0 672c0 88.366 71.634 160 160 160s160-71.634 160-160c0-88.366-71.634-160-160-160s-160 71.634-160 160zM768 352v96c0 35.2-28.8 64-64 64h-640c-35.2 0-64-28.8-64-64v-320c0-35.2 28.8-64 64-64h640c35.2 0 64 28.8 64 64v96l256-160v448l-256-160zM640 192h-512v192h512v-192z" />
<glyph unicode="&#xe915;" d="M336.092 797.151c-21.855 15.459-43.711 30.384-65.566 45.843-22.388 15.992-45.31 31.45-67.698 47.442-1.599 1.066-2.132 2.665-1.599 4.798 0.533 5.864 1.066 11.727 0.533 17.591-3.731 22.388-25.587 39.446-48.508 38.913-22.388-0.533-44.777-17.058-45.31-42.111 0-2.132-1.066-2.665-2.665-3.731-17.058-9.595-24.521-27.186-21.322-46.909 5.864-34.116 51.173-50.64 77.826-28.252 1.599 1.599 2.665 1.599 4.798 0.533 39.446-21.855 79.425-43.178 118.871-65.033 9.062-4.798 18.657-10.128 27.719-15.459 8.529 14.926 16.525 29.851 25.054 44.777-1.066 1.066-1.599 1.599-2.132 1.599zM308.906 761.97c-4.798 2.665-9.595 4.798-13.859 7.463-43.711 23.454-86.888 47.442-130.066 70.896-2.665 1.599-4.264 1.066-5.864-1.066-21.322-22.921-59.169-8.529-65.566 14.926-5.331 19.19 2.132 35.715 20.256 43.711 2.132 1.066 2.665 2.132 2.665 4.264-1.599 27.186 22.388 39.979 39.979 37.847 18.124-2.132 31.45-13.326 35.715-29.318 2.132-7.463 1.599-14.393-1.599-21.322-1.066-2.132-0.533-3.731 1.599-4.798 43.711-30.384 87.421-61.301 131.665-91.686 0.533-0.533 1.599-1.066 2.665-1.599-6.397-9.062-11.727-19.19-17.591-29.318z" />
<glyph unicode="&#xe916;" d="M955.502 533.289c-17.058 9.062-38.913 7.463-53.306-4.798-1.599-1.599-2.665-1.599-4.798-0.533-41.578 22.388-83.157 44.244-125.268 66.099-7.463 4.264-14.926 7.996-22.921 12.26-8.529-14.926-16.525-30.384-24.521-45.31 1.066-1.066 2.132-1.599 2.665-2.132 44.777-30.384 89.020-60.768 133.797-91.153 1.599-1.066 2.132-2.132 1.599-3.731-1.599-7.463-1.599-14.926 1.066-22.388 7.463-22.921 30.384-37.314 54.905-33.049 21.855 3.198 37.847 21.322 38.38 42.644 0 1.599 0.533 2.665 2.132 3.198 11.727 7.463 19.723 17.591 21.322 31.983 2.665 18.657-7.463 37.314-25.054 46.909zM953.37 461.326c-2.132-1.066-4.264-2.132-5.864-3.198 2.132-16.525-4.264-29.851-18.657-37.314-14.926-7.463-29.851-5.864-42.644 4.264-13.859 10.661-17.058 23.454-11.727 44.777-45.843 31.45-91.686 62.368-137.528 93.818 5.331 10.128 10.661 20.256 16.525 30.384 49.574-26.12 99.148-52.239 148.189-78.359 3.731 2.665 6.397 5.864 10.128 8.529 12.793 7.996 26.12 7.996 38.913 1.599 13.326-6.93 20.789-17.591 21.322-32.516 0.533-14.393-6.397-25.054-18.657-31.983z" />
<glyph unicode="&#xe917;" d="M453.364 622.309c-19.723 0.533-42.644 9.062-59.702 29.318-23.988 28.252-21.855 66.632 4.264 92.752 31.983 31.983 88.487 33.049 121.537 2.665 34.116-31.983 30.384-82.624-7.996-109.276-15.992-10.661-33.049-15.992-58.103-15.459zM462.959 760.371c-20.256 0-36.781-5.331-50.64-16.525-29.318-22.921-33.049-62.901-7.996-89.553 27.719-29.851 78.359-31.45 108.21-4.264 26.653 23.988 28.252 60.235 4.264 86.355-14.926 16.525-34.649 23.454-53.839 23.988z" />
<glyph unicode="&#xe918;" d="M646.863 721.991c13.859-0.533 27.186-4.798 36.781-15.459 17.058-17.591 15.459-42.644-2.665-59.169-19.19-17.058-51.706-17.058-70.896 1.066-20.256 19.19-17.058 49.574 6.93 65.033 9.062 5.864 19.19 8.529 29.851 8.529zM646.863 713.462c-11.194 0-21.855-3.731-30.384-11.727-11.727-11.194-13.859-28.785-4.264-42.111 13.326-19.19 43.178-22.388 61.834-6.397 15.459 12.793 15.992 34.116 2.132 48.508-7.996 7.996-18.124 11.727-29.318 11.727z" />
<glyph unicode="&#xe919;" d="M898.465 35.415c-123.669 3.731-246.805 7.996-370.474 11.727 0 87.421 0 174.842 0 262.796 123.669 3.731 246.805 7.996 370.474 11.727 0-95.417 0-190.834 0-286.251zM602.619 228.914c86.355 0 172.71 0 259.065 0 0 2.665 0 4.798 0 7.463-86.355 0-172.71 0-259.065 0 0-2.665 0-4.798 0-7.463zM602.619 201.728c86.355 0 172.71 0 259.065 0 0 2.665 0 5.331 0 7.463-86.355 0-172.71 0-259.065 0 0-2.665 0-4.798 0-7.463zM602.619 174.542c86.355 0 172.71 0 259.065 0 0 2.665 0 4.798 0 7.463-86.355 0-172.71 0-259.065 0 0-2.132 0-4.798 0-7.463zM602.619 66.865c86.355 0 172.71 0 259.065 0 0 2.665 0 5.331 0 7.463-86.355 0-172.71 0-259.065 0 0-2.665 0-4.798 0-7.463zM861.151 101.514c-86.355 0-172.71 0-259.065 0 0-2.665 0-4.798 0-7.463 86.355 0 172.71 0 259.065 0 0 2.665 0 4.798 0 7.463zM602.619 255.567c86.355 0 172.71 0 259.065 0 0 2.665 0 4.798 0 7.463-86.355 0-172.71 0-259.065 0 0-2.665 0-4.798 0-7.463zM602.619 120.704c86.355 0 172.71 0 259.065 0 0 2.665 0 5.331 0 7.463-86.355 0-172.71 0-259.065 0 0-2.665 0-4.798 0-7.463zM861.151 147.89c0 2.665 0 5.331 0 7.463-86.355 0-172.71 0-259.065 0 0-2.665 0-4.798 0-7.463 86.888 0 172.71 0 259.065 0zM861.151 282.753c0 2.665 0 4.798 0 7.463-72.496 0-144.991 0-217.487 0 0-2.665 0-4.798 0-7.463 73.029 0 144.991 0 217.487 0z" />
<glyph unicode="&#xe91a;" d="M160.716 509.834c47.442 29.318 94.351 58.636 141.793 87.954 3.731-5.331 6.93-11.194 10.661-16.525-6.93-5.864-13.859-11.194-21.322-16.525-35.182-27.719-70.363-55.438-105.545-83.157-1.599-1.599-2.132-2.665-1.599-4.798 1.066-2.665 2.132-5.864 3.198-8.529 4.264-11.727 1.066-21.855-7.996-30.384-11.194-10.661-28.252-12.26-39.979-3.731-7.996 5.864-10.661 13.859-11.194 22.921 0 1.599-0.533 3.198-0.533 4.798-0.533 3.198-2.132 4.798-4.798 5.864-1.066 0.533-2.132 0.533-3.198 1.066-21.855 6.93-23.988 35.182-8.529 47.975 14.926 12.26 34.116 10.661 46.376-4.264 1.066-0.533 1.599-1.599 2.665-2.665z" />
<glyph unicode="&#xe91b;" d="M867.548 888.837c-2.132 4.798-4.798 9.062-5.864 13.859-2.665 10.661 1.066 19.723 8.529 26.653 8.529 7.996 18.657 11.194 30.384 8.529 14.926-3.731 23.454-16.525 21.322-31.983-0.533-3.198 0.533-4.798 3.731-5.331 7.996-2.132 15.459-5.864 19.723-13.859 9.062-16.525-0.533-36.781-19.19-42.644-13.326-3.731-24.521 0.533-33.583 10.661-1.066 1.066-1.599 2.132-2.665 3.198-47.442-29.318-94.351-58.103-141.793-87.421-3.731 5.331-6.93 10.661-10.661 16.525 43.178 33.583 86.888 67.698 130.066 101.814z" />
<glyph unicode="&#xe91c;" d="M159.65 852.056c-2.665-2.665-4.798-5.864-7.463-7.996-8.529-7.996-18.657-10.128-29.851-6.93s-19.723 9.595-22.388 21.855c-3.198 13.859 2.665 25.587 15.459 31.983 2.665 1.599 5.864 2.132 9.595 3.731-3.731 17.058 1.066 31.45 19.19 37.314 12.793 4.264 24.521 0.533 33.583-9.595 10.128-11.727 9.062-23.988 1.599-37.314 45.31-31.983 90.619-63.434 135.929-95.417-3.198-5.864-6.397-11.194-9.595-17.058-49.041 26.653-97.549 53.306-146.057 79.425z" />
<glyph unicode="&#xe91d;" d="M884.073 473.054c-22.921 15.459-45.843 31.45-68.764 46.909s-45.31 30.917-68.231 46.376c3.198 5.864 5.864 11.194 9.595 17.058 49.041-26.12 98.615-52.239 147.656-78.359 1.066 1.599 2.132 2.665 3.198 4.264 7.996 10.661 19.19 14.926 31.983 12.26s21.322-11.194 24.521-23.988c2.665-11.194-3.198-23.454-13.859-28.785-2.132-1.066-4.264-2.132-6.397-3.198-3.198-1.599-4.264-3.731-3.731-7.463 2.665-19.723-10.128-34.116-29.851-33.049-15.992 0.533-29.851 13.326-30.384 28.785-0.533 5.331 1.599 10.128 3.731 15.459-0.533 0.533-0.533 2.132 0.533 3.731z" />
<glyph unicode="&#xe91e;" d="M736.949 673.483c-0.533 23.988-5.864 46.909-16.525 68.231-19.723 39.446-50.64 67.698-89.553 86.355-54.372 26.12-110.876 30.384-168.979 13.326-41.578-12.26-76.76-34.649-103.946-69.297-22.388-28.252-35.182-60.235-36.248-96.483-1.066-37.847 9.595-72.496 31.983-103.413 23.454-32.516 54.905-54.905 92.219-69.297 2.665-1.066 3.198-2.132 3.198-4.798 0-18.657 0-36.781 0-55.438 0-7.996 0-16.525 0-24.521 11.727 0 23.454 0 35.182 0 0 36.248 0 71.963 0 107.677 2.132 0 4.264 0 6.397 0 0-36.248 0-71.963 0-107.677 8.529 0 17.058 0 26.12 0 0 33.049 0 66.099 0 99.148 5.864 0 11.727 0 17.591 0 0-33.049 0-66.099 0-99.148 10.128 0 20.256 0 30.384 0 0 36.781 0 73.562 0 109.809 3.198 0 5.864 0 9.062 0 0-36.781 0-73.562 0-110.343 10.128 0 20.256 0 30.384 0 0 28.785 0 57.037 0 85.822 4.798 0 9.595 0 14.393 0 0-28.785 0-57.57 0-85.822 11.727 0 22.921 0 34.649 0 0 1.599 0 2.665 0 3.731 0 32.516 0 65.566 0 98.082 0 2.132 0.533 3.731 2.665 5.331 11.727 7.996 22.921 16.525 32.516 27.186 31.983 34.116 50.107 73.562 48.508 121.537zM525.859 644.164c-17.058-17.058-37.847-25.587-61.834-27.186-1.599 0-3.198 0-4.798 0-30.917 1.066-57.037 12.26-75.161 38.38-18.657 27.186-15.992 62.901 5.864 87.421 20.256 22.921 45.843 32.516 76.227 30.917 21.855-1.066 41.045-9.595 57.57-24.521 30.917-28.252 31.983-75.161 2.132-105.012zM597.289 588.194c-19.723 0-39.446 0-59.702 0 0 2.665 0 4.798 0 7.463 19.723 0 39.446 0 59.702 0 0-2.665 0-4.798 0-7.463zM685.243 644.698c-22.921-21.322-62.901-19.19-82.624 5.331-17.591 21.855-12.26 52.239 12.26 68.231 9.595 6.397 20.256 9.062 33.049 9.595 17.591-0.533 33.583-7.463 44.777-23.454 13.326-19.723 10.128-43.711-7.463-59.702z" />
<glyph unicode="&#xe91f;" glyph-name="book" d="M896 832v-832h-672c-53.026 0-96 42.98-96 96s42.974 96 96 96h608v768h-640c-70.398 0-128-57.6-128-128v-768c0-70.4 57.602-128 128-128h768v896h-64zM224.056 128v0c-0.018-0.002-0.038 0-0.056 0-17.672 0-32-14.326-32-32s14.328-32 32-32c0.018 0 0.038 0.002 0.056 0.002v-0.002h607.89v64h-607.89z" />
<glyph unicode="&#xe920;" d="M602.619 228.914c0 2.665 0 4.798 0 7.463 86.355 0 172.71 0 259.065 0 0-2.665 0-4.798 0-7.463-86.355 0-172.71 0-259.065 0z" />
<glyph unicode="&#xe921;" d="M602.619 201.728c0 2.665 0 4.798 0 7.463 86.355 0 172.71 0 259.065 0 0-2.132 0-4.798 0-7.463-86.355 0-172.71 0-259.065 0z" />
<glyph unicode="&#xe922;" d="M602.619 174.542c0 2.665 0 4.798 0 7.463 86.355 0 172.71 0 259.065 0 0-2.665 0-4.798 0-7.463-86.355 0-172.71 0-259.065 0z" />
<glyph unicode="&#xe923;" d="M602.619 66.865c0 2.665 0 4.798 0 7.463 86.355 0 172.71 0 259.065 0 0-2.132 0-4.798 0-7.463-86.355 0-172.71 0-259.065 0z" />
<glyph unicode="&#xe924;" d="M861.151 101.514c0-2.665 0-4.798 0-7.463-86.355 0-172.71 0-259.065 0 0 2.665 0 4.798 0 7.463 86.355 0 172.71 0 259.065 0z" />
<glyph unicode="&#xe925;" d="M602.619 255.567c0 2.665 0 4.798 0 7.463 86.355 0 172.71 0 259.065 0 0-2.665 0-4.798 0-7.463-86.355 0-172.71 0-259.065 0z" />
<glyph unicode="&#xe926;" d="M602.619 120.704c0 2.665 0 4.798 0 7.463 86.355 0 172.71 0 259.065 0 0-2.132 0-4.798 0-7.463-86.355 0-172.71 0-259.065 0z" />
<glyph unicode="&#xe927;" d="M861.151 147.89c-86.355 0-172.71 0-259.065 0 0 2.665 0 4.798 0 7.463 86.355 0 172.71 0 259.065 0 0-2.665 0-4.798 0-7.463z" />
<glyph unicode="&#xe928;" d="M861.151 282.753c-72.496 0-144.991 0-217.487 0 0 2.665 0 4.798 0 7.463 72.496 0 144.991 0 217.487 0 0-2.665 0-4.798 0-7.463z" />
<glyph unicode="&#xe929;" d="M129.266 370.174c0-96.483 0-192.433 0-288.916 114.607 4.264 228.681 8.529 343.288 12.793 0 89.020 0 177.508 0 265.995-114.074 3.198-228.681 6.397-343.288 10.128zM212.423 333.393c73.029 0 146.057 0 219.086 0 0-2.665 0-4.798 0-7.463-73.029 0-146.057 0-219.086 0 0 2.665 0 4.798 0 7.463zM171.91 281.154c86.355 0 172.71 0 259.065 0 0-2.665 0-4.798 0-7.463-86.355 0-172.71 0-259.065 0 0 2.665 0 4.798 0 7.463zM431.509 228.914c0-2.665 0-4.798 0-7.463-86.355 0-172.71 0-259.065 0 0 2.132 0 4.798 0 7.463 85.822 0 172.177 0 259.065 0zM171.91 255.034c86.355 0 172.71 0 259.065 0 0-2.665 0-4.798 0-7.463-86.355 0-172.71 0-259.065 0 0 2.665 0 4.798 0 7.463zM171.91 202.794c86.355 0 172.71 0 259.065 0 0-2.665 0-4.798 0-7.463-86.355 0-172.71 0-259.065 0 0 2.665 0 5.331 0 7.463zM171.91 176.675c86.355 0 172.71 0 259.065 0 0-2.665 0-4.798 0-7.463-86.355 0-172.71 0-259.065 0 0 2.665 0 5.331 0 7.463zM431.509 117.505c-86.355 0-172.71 0-259.065 0 0 2.132 0 4.798 0 7.463 86.355 0 172.71 0 259.065 0 0-2.665 0-5.331 0-7.463zM431.509 143.092c-86.355 0-172.71 0-259.065 0 0 2.132 0 4.798 0 7.463 86.355 0 172.71 0 259.065 0 0-2.132 0-4.798 0-7.463zM431.509 299.811c-86.355 0-172.71 0-259.065 0 0 2.132 0 4.798 0 7.463 86.355 0 172.71 0 259.065 0 0-2.665 0-4.798 0-7.463z" />
<glyph unicode="&#xe92d;" glyph-name="paste" d="M704 832h-128v64c0 35.2-28.8 64-64 64h-128c-35.204 0-64-28.8-64-64v-64h-128v-128h512v128zM512 832h-128v63.886c0.034 0.038 0.072 0.078 0.114 0.114h127.768c0.042-0.036 0.082-0.076 0.118-0.114v-63.886zM832 640v160c0 17.6-14.4 32-32 32h-64v-64h32v-128h-192l-192-192v-256h-256v576h32v64h-64c-17.602 0-32-14.4-32-32v-640c0-17.6 14.398-32 32-32h288v-192h640v704h-192zM576 549.49v-101.49h-101.49l101.49 101.49zM960 0h-512v384h192v192h320v-576z" />
<glyph unicode="&#xe936;" glyph-name="price-tags" horiz-adv-x="1280" d="M1232 960h-384c-26.4 0-63.274-15.274-81.942-33.942l-476.116-476.116c-18.668-18.668-18.668-49.214 0-67.882l412.118-412.118c18.668-18.668 49.214-18.668 67.882 0l476.118 476.118c18.666 18.666 33.94 55.54 33.94 81.94v384c0 26.4-21.6 48-48 48zM992 576c-53.020 0-96 42.98-96 96s42.98 96 96 96 96-42.98 96-96-42.98-96-96-96zM128 416l544 544h-80c-26.4 0-63.274-15.274-81.942-33.942l-476.116-476.116c-18.668-18.668-18.668-49.214 0-67.882l412.118-412.118c18.668-18.668 49.214-18.668 67.882 0l30.058 30.058-416 416z" />
<glyph unicode="&#xe93a;" glyph-name="cart" d="M384 32c0-53.019-42.981-96-96-96s-96 42.981-96 96c0 53.019 42.981 96 96 96s96-42.981 96-96zM1024 32c0-53.019-42.981-96-96-96s-96 42.981-96 96c0 53.019 42.981 96 96 96s96-42.981 96-96zM1024 448v384h-768c0 35.346-28.654 64-64 64h-192v-64h128l48.074-412.054c-29.294-23.458-48.074-59.5-48.074-99.946 0-70.696 57.308-128 128-128h768v64h-768c-35.346 0-64 28.654-64 64 0 0.218 0.014 0.436 0.016 0.656l831.984 127.344z" />
<glyph unicode="&#xe947;" glyph-name="location" d="M512 960c-176.732 0-320-143.268-320-320 0-320 320-704 320-704s320 384 320 704c0 176.732-143.27 320-320 320zM512 448c-106.040 0-192 85.96-192 192s85.96 192 192 192 192-85.96 192-192-85.96-192-192-192z" />
<glyph unicode="&#xe977;" glyph-name="quotes-left" d="M225 512c123.712 0 224-100.29 224-224 0-123.712-100.288-224-224-224s-224 100.288-224 224l-1 32c0 247.424 200.576 448 448 448v-128c-85.474 0-165.834-33.286-226.274-93.726-11.634-11.636-22.252-24.016-31.83-37.020 11.438 1.8 23.16 2.746 35.104 2.746zM801 512c123.71 0 224-100.29 224-224 0-123.712-100.29-224-224-224s-224 100.288-224 224l-1 32c0 247.424 200.576 448 448 448v-128c-85.474 0-165.834-33.286-226.274-93.726-11.636-11.636-22.254-24.016-31.832-37.020 11.44 1.8 23.16 2.746 35.106 2.746z" />
<glyph unicode="&#xe978;" glyph-name="quotes-right" d="M800 320c-123.712 0-224 100.29-224 224 0 123.712 100.288 224 224 224s224-100.288 224-224l1-32c0-247.424-200.576-448-448-448v128c85.474 0 165.834 33.286 226.274 93.726 11.634 11.636 22.252 24.016 31.83 37.020-11.438-1.8-23.16-2.746-35.104-2.746zM224 320c-123.71 0-224 100.29-224 224 0 123.712 100.29 224 224 224s224-100.288 224-224l1-32c0-247.424-200.576-448-448-448v128c85.474 0 165.834 33.286 226.274 93.726 11.636 11.636 22.254 24.016 31.832 37.020-11.44-1.8-23.16-2.746-35.106-2.746z" />
<glyph unicode="&#xe99b;" glyph-name="stats-dots" d="M128 64h896v-128h-1024v1024h128zM288 128c-53.020 0-96 42.98-96 96s42.98 96 96 96c2.828 0 5.622-0.148 8.388-0.386l103.192 171.986c-9.84 15.070-15.58 33.062-15.58 52.402 0 53.020 42.98 96 96 96s96-42.98 96-96c0-19.342-5.74-37.332-15.58-52.402l103.192-171.986c2.766 0.238 5.56 0.386 8.388 0.386 2.136 0 4.248-0.094 6.35-0.23l170.356 298.122c-10.536 15.408-16.706 34.036-16.706 54.11 0 53.020 42.98 96 96 96s96-42.98 96-96c0-53.020-42.98-96-96-96-2.14 0-4.248 0.094-6.35 0.232l-170.356-298.124c10.536-15.406 16.706-34.036 16.706-54.11 0-53.020-42.98-96-96-96s-96 42.98-96 96c0 19.34 5.74 37.332 15.578 52.402l-103.19 171.984c-2.766-0.238-5.56-0.386-8.388-0.386s-5.622 0.146-8.388 0.386l-103.192-171.986c9.84-15.068 15.58-33.060 15.58-52.4 0-53.020-42.98-96-96-96z" />
<glyph unicode="&#xe99e;" glyph-name="trophy" d="M832 768v128h-640v-128h-192v-128c0-106.038 85.958-192 192-192 20.076 0 39.43 3.086 57.62 8.802 46.174-66.008 116.608-113.796 198.38-130.396v-198.406h-64c-70.694 0-128-57.306-128-128h512c0 70.694-57.306 128-128 128h-64v198.406c81.772 16.6 152.206 64.386 198.38 130.396 18.19-5.716 37.544-8.802 57.62-8.802 106.042 0 192 85.962 192 192v128h-192zM192 524c-63.962 0-116 52.038-116 116v64h116v-64c0-40.186 7.43-78.632 20.954-114.068-6.802-1.246-13.798-1.932-20.954-1.932zM948 640c0-63.962-52.038-116-116-116-7.156 0-14.152 0.686-20.954 1.932 13.524 35.436 20.954 73.882 20.954 114.068v64h116v-64z" />
<glyph unicode="&#xe9af;" glyph-name="airplane" d="M768 320.032l-182.82 182.822 438.82 329.15-128.010 127.996-548.52-219.442-172.7 172.706c-49.78 49.778-119.302 61.706-154.502 26.508-35.198-35.198-23.268-104.726 26.51-154.5l172.686-172.684-219.464-548.582 127.99-128.006 329.19 438.868 182.826-182.828v-255.98h127.994l63.992 191.988 191.988 63.996v127.992l-255.98-0.004z" />
<glyph unicode="&#xe9ca;" glyph-name="earth" d="M512 960c-282.77 0-512-229.23-512-512s229.23-512 512-512 512 229.23 512 512-229.23 512-512 512zM512-0.002c-62.958 0-122.872 13.012-177.23 36.452l233.148 262.29c5.206 5.858 8.082 13.422 8.082 21.26v96c0 17.674-14.326 32-32 32-112.99 0-232.204 117.462-233.374 118.626-6 6.002-14.14 9.374-22.626 9.374h-128c-17.672 0-32-14.328-32-32v-192c0-12.122 6.848-23.202 17.69-28.622l110.31-55.156v-187.886c-116.052 80.956-192 215.432-192 367.664 0 68.714 15.49 133.806 43.138 192h116.862c8.488 0 16.626 3.372 22.628 9.372l128 128c6 6.002 9.372 14.14 9.372 22.628v77.412c40.562 12.074 83.518 18.588 128 18.588 70.406 0 137.004-16.26 196.282-45.2-4.144-3.502-8.176-7.164-12.046-11.036-36.266-36.264-56.236-84.478-56.236-135.764s19.97-99.5 56.236-135.764c36.434-36.432 85.218-56.264 135.634-56.26 3.166 0 6.342 0.080 9.518 0.236 13.814-51.802 38.752-186.656-8.404-372.334-0.444-1.744-0.696-3.488-0.842-5.224-81.324-83.080-194.7-134.656-320.142-134.656z" />
<glyph unicode="&#xea0f;" glyph-name="cross" d="M1014.662 137.34c-0.004 0.004-0.008 0.008-0.012 0.010l-310.644 310.65 310.644 310.65c0.004 0.004 0.008 0.006 0.012 0.010 3.344 3.346 5.762 7.254 7.312 11.416 4.246 11.376 1.824 24.682-7.324 33.83l-146.746 146.746c-9.148 9.146-22.45 11.566-33.828 7.32-4.16-1.55-8.070-3.968-11.418-7.31 0-0.004-0.004-0.006-0.008-0.010l-310.648-310.652-310.648 310.65c-0.004 0.004-0.006 0.006-0.010 0.010-3.346 3.342-7.254 5.76-11.414 7.31-11.38 4.248-24.682 1.826-33.83-7.32l-146.748-146.748c-9.148-9.148-11.568-22.452-7.322-33.828 1.552-4.16 3.97-8.072 7.312-11.416 0.004-0.002 0.006-0.006 0.010-0.010l310.65-310.648-310.65-310.652c-0.002-0.004-0.006-0.006-0.008-0.010-3.342-3.346-5.76-7.254-7.314-11.414-4.248-11.376-1.826-24.682 7.322-33.83l146.748-146.746c9.15-9.148 22.452-11.568 33.83-7.322 4.16 1.552 8.070 3.97 11.416 7.312 0.002 0.004 0.006 0.006 0.010 0.010l310.648 310.65 310.648-310.65c0.004-0.002 0.008-0.006 0.012-0.008 3.348-3.344 7.254-5.762 11.414-7.314 11.378-4.246 24.684-1.826 33.828 7.322l146.746 146.748c9.148 9.148 11.57 22.454 7.324 33.83-1.552 4.16-3.97 8.068-7.314 11.414z" />
<glyph unicode="&#xea10;" glyph-name="checkmark" d="M864 832l-480-480-224 224-160-160 384-384 640 640z" />
<glyph unicode="&#xea71;" glyph-name="table2" d="M0 896v-896h1024v896h-1024zM384 320v192h256v-192h-256zM640 256v-192h-256v192h256zM640 768v-192h-256v192h256zM320 768v-192h-256v192h256zM64 512h256v-192h-256v192zM704 512h256v-192h-256v192zM704 576v192h256v-192h-256zM64 256h256v-192h-256v192zM704 64v192h256v-192h-256z" />
</font>
</defs>
</svg>
