<?xml version="1.0" encoding="utf-8"?>
<!-- Generator: Adobe Illustrator 16.2.0, SVG Export Plug-In . SVG Version: 6.00 Build 0)  -->
<!DOCTYPE svg PUBLIC "-//W3C//DTD SVG 1.1//EN" "http://www.w3.org/Graphics/SVG/1.1/DTD/svg11.dtd">
<svg version="1.1" id="Layer_1" xmlns="http://www.w3.org/2000/svg" xmlns:xlink="http://www.w3.org/1999/xlink" x="0px" y="0px"
	 width="30px" height="30px" viewBox="0 0 30 30" enable-background="new 0 0 30 30" xml:space="preserve">
<ellipse fill="#FEE80E" cx="2.068" cy="0.442" rx="0" ry="0.036"/>
<circle fill="#FEE70B" cx="15" cy="15" r="25"/>
<g>
	<g id="XMLID_1_">
		<g>
			<path d="M26.575,19.066c0.177,0.176,0.177,0.176-0.009,0.361c-0.919,0.92-1.838,1.839-2.748,2.758
				c-0.13,0.13-0.195,0.12-0.315-0.01c-2.757-2.757-5.523-5.514-8.271-8.28c-0.13-0.13-0.195-0.139-0.334-0.009
				c-2.794,2.803-5.589,5.597-8.383,8.401c-0.046,0.037-0.093,0.093-0.13,0.14c-0.019,0-0.028,0-0.037,0
				c-0.083-0.037-0.149-0.103-0.214-0.167c-0.891-0.892-1.782-1.773-2.673-2.664c-0.065-0.065-0.121-0.131-0.167-0.214
				c0-0.019,0-0.028,0-0.037c0.046-0.084,0.102-0.148,0.167-0.214c3.797-3.796,7.594-7.593,11.391-11.39
				c0.065-0.065,0.13-0.121,0.213-0.167c0.009,0,0.019,0,0.037,0c0.046,0.056,0.102,0.121,0.148,0.176
				C19.028,11.519,22.797,15.297,26.575,19.066z"/>
		</g>
		<g>
		</g>
	</g>
</g>
</svg>
