<?xml version="1.0" encoding="utf-8"?>
<!-- Generator: Adobe Illustrator 16.2.0, SVG Export Plug-In . SVG Version: 6.00 Build 0)  -->
<!DOCTYPE svg PUBLIC "-//W3C//DTD SVG 1.1//EN" "http://www.w3.org/Graphics/SVG/1.1/DTD/svg11.dtd">
<svg version="1.1" id="Layer_1" xmlns="http://www.w3.org/2000/svg" xmlns:xlink="http://www.w3.org/1999/xlink" x="0px" y="0px"
	 width="200px" height="200px" viewBox="0 0 200 200" enable-background="new 0 0 200 200" xml:space="preserve">
<g>
	<path fill-rule="evenodd" clip-rule="evenodd" d="M200,200c-66.7,0-133.3,0-200,0C0,133.3,0,66.7,0,0c66.7,0,133.3,0,200,0
		C200,66.7,200,133.3,200,200z M67.5,98.8c0.4,0.7,0.7,1.2,0.9,1.7c3.6,7,7.3,13.9,10.9,21c1.3,2.7,3.4,3.8,6.3,3.8
		c8.8,0,17.6,0,26.3,0.1c3,0,5-1.2,6.1-3.9c2.2-4.9,4.4-9.8,6.6-14.7c0.9-2,1.8-3.9,2.8-6.1c0.5,0.8,0.7,1.3,1,1.7
		c3.4,6.4,6.7,12.7,10,19.2c1.3,2.5,3.3,3.6,6,3.7c0.8,0,1.6,0,2.3,0c6.3,0,12.7,0,19,0c4.3,0,6.1-3,4.1-6.7
		c-0.2-0.4-0.5-0.9-0.7-1.3c-2.3-4.4-4.7-8.8-7-13.2c1.9-0.7,3.8-1.2,5.5-1.9c5.6-2.4,10.1-6,12.1-12c1.6-4.9,0.3-9.4-3.6-12.3
		c-2.4-1.8-5.2-2.2-8-2.2c-18.9,0-37.9,0-56.8,0c-2.7,0-4.5,1.2-5.6,3.6c-1,2.2-1.9,4.4-2.9,6.5c-0.6,1.4-1.3,2.7-2,4.3
		c-0.4-0.5-0.6-0.8-0.7-1.1c-1.9-3.5-3.7-7.1-5.8-10.5c-0.7-1.1-1.9-2.3-3-2.5c-3.7-0.7-7.4-1-10.7,1.4c-1.4,1-2.7,1.9-4.1,2.8
		C64,88.7,51.7,97.2,39.4,105.7c-6.3,4.4-12.6,8.7-18.9,13.1c-1.4,1-2.1,2.3-1.6,4c0.5,1.7,1.7,2.4,3.4,2.4c14.5,0,29,0,43.5,0
		c2.1,0,3.6-0.9,4.6-2.8c0.6-1.3,1.2-2.6,1.8-3.9c1.7-3.7,0.4-5.9-3.7-5.9c-6.1,0-12.2,0-18.3,0c-0.7,0-1.4,0-2.1,0
		c0-0.1-0.1-0.3-0.1-0.4C54.4,107.8,60.9,103.4,67.5,98.8z"/>
	<path fill-rule="evenodd" clip-rule="evenodd" fill="#FFFFFF" d="M67.5,98.8c-6.6,4.5-13.1,9-19.5,13.4c0,0.1,0.1,0.3,0.1,0.4
		c0.7,0,1.4,0,2.1,0c6.1,0,12.2,0,18.3,0c4,0,5.4,2.1,3.7,5.9c-0.6,1.3-1.1,2.6-1.8,3.9c-0.9,1.9-2.5,2.8-4.6,2.8
		c-14.5,0-29,0-43.5,0c-1.6,0-2.9-0.7-3.4-2.4c-0.5-1.7,0.2-3.1,1.6-4c6.3-4.4,12.6-8.7,18.9-13.1C51.7,97.2,64,88.7,76.3,80.2
		c1.4-0.9,2.8-1.9,4.1-2.8c3.3-2.4,7.1-2.1,10.7-1.4c1.1,0.2,2.4,1.5,3,2.5c2.1,3.4,3.9,7,5.8,10.5c0.2,0.3,0.4,0.5,0.7,1.1
		c0.7-1.6,1.4-3,2-4.3c1-2.2,1.9-4.4,2.9-6.5c1.1-2.4,2.9-3.6,5.6-3.6c18.9,0,37.9,0,56.8,0c2.9,0,5.7,0.5,8,2.2
		c3.9,2.9,5.2,7.4,3.6,12.3c-2,6.1-6.5,9.6-12.1,12c-1.7,0.7-3.5,1.2-5.5,1.9c2.4,4.4,4.7,8.8,7,13.2c0.2,0.4,0.5,0.9,0.7,1.3
		c2,3.7,0.2,6.7-4.1,6.7c-6.3,0-12.7,0-19,0c-0.8,0-1.6,0-2.3,0c-2.7-0.1-4.7-1.2-6-3.7c-3.3-6.4-6.7-12.8-10-19.2
		c-0.3-0.5-0.5-0.9-1-1.7c-1,2.2-1.9,4.2-2.8,6.1c-2.2,4.9-4.4,9.8-6.6,14.7c-1.2,2.7-3.2,3.9-6.1,3.9c-8.8-0.1-17.6-0.1-26.3-0.1
		c-2.9,0-4.9-1.1-6.3-3.8c-3.6-7-7.3-14-10.9-21C68.2,100,67.9,99.6,67.5,98.8z M100.7,95.1c-0.5-0.7-0.8-1.1-1-1.5
		c-2.4-4.5-4.7-9-7.2-13.5c-0.4-0.8-1.2-1.9-1.9-2c-3.1,0-6.3-0.8-9.3,1.4c-7,5.1-14.2,9.9-21.3,14.8c-12.5,8.7-25.1,17.3-37.6,26.1
		c-0.6,0.4-0.8,1.2-1.2,1.8c0.6,0.2,1.3,0.5,1.9,0.5c13.1,0,26.1,0.1,39.2,0c6.2,0,5,1,7.7-5c1.1-2.4,0.8-2.8-2-2.8
		c-8.3,0-16.7,0-25,0c-0.8,0-1.6,0-2.4,0c0-0.1-0.1-0.3-0.1-0.4c9.3-6.4,18.5-12.7,27.9-19.1c0.4,0.7,0.7,1.2,1,1.7
		c4.1,7.9,8.2,15.7,12.3,23.6c0.6,1.2,1.4,2.2,3,2.2c9.5,0,19,0,28.5-0.1c0.7,0,1.7-0.6,2.1-1.2c0.9-1.4,1.6-2.9,2.2-4.4
		c4.5-10,9-19.9,13.4-29.9c0.4-0.9,0.9-1.2,1.8-1.2c4.7,0,9.4,0,14.2,0c1.4,0,2.9,0.2,3.5,1.7c0.6,1.6,0.1,3-1.1,4.3
		c-1.9,2-4.4,2.4-7,2.5c-3.1,0.1-6.1,0-9.2,0c-2.1,0-4.3,3.5-3.3,5.4c3.7,7.1,7.4,14.1,11.1,21.2c0.7,1.3,1.7,1.8,3.1,1.8
		c7.4,0,14.9,0,22.3,0c2,0,2.5-1.1,1.6-2.8c-2.3-4.2-4.5-8.4-6.8-12.6c-0.9-1.6-1.7-3.3-2.5-5c2.3-0.6,4.4-1,6.4-1.7
		c5.2-1.8,9.6-4.6,11.9-9.9c1.1-2.4,1.3-4.8,0.6-7.3c-1.1-3.4-4.4-5.5-8.5-5.5c-19.4,0-38.8,0-58.2,0c-1.6,0-2.5,0.6-3.1,2
		c-1.7,3.8-3.4,7.7-5.2,11.5C102.1,92.7,101.4,93.8,100.7,95.1z M131.3,91.9c1.8,0,3.3,0,4.9,0c2.7,0,5.4,0,8.1-0.2
		c1.8-0.1,3.4-0.9,4.1-3.1c-0.6-0.2-1.1-0.4-1.6-0.5c-4.3,0-8.5-0.1-12.8,0c-0.4,0-1,0.3-1.2,0.6C132.2,89.7,131.8,90.8,131.3,91.9z
		"/>
	<path fill-rule="evenodd" clip-rule="evenodd" d="M100.7,95.1c0.8-1.4,1.4-2.5,2-3.7c1.8-3.8,3.5-7.6,5.2-11.5c0.6-1.4,1.5-2,3.1-2
		c19.4,0,38.8,0,58.2,0c4.1,0,7.4,2,8.5,5.5c0.8,2.4,0.5,4.9-0.6,7.3c-2.4,5.3-6.8,8.1-11.9,9.9c-2,0.7-4.1,1.1-6.4,1.7
		c0.9,1.7,1.7,3.3,2.5,5c2.2,4.2,4.5,8.4,6.8,12.6c0.9,1.8,0.4,2.8-1.6,2.8c-7.4,0-14.9,0-22.3,0c-1.4,0-2.5-0.6-3.1-1.8
		c-3.7-7.1-7.4-14.1-11.1-21.2c-1-1.9,1.2-5.4,3.3-5.4c3.1,0,6.1,0.1,9.2,0c2.6-0.1,5.1-0.5,7-2.5c1.2-1.2,1.7-2.7,1.1-4.3
		c-0.6-1.5-2.1-1.7-3.5-1.7c-4.7,0-9.4,0-14.2,0c-1,0-1.4,0.3-1.8,1.2c-4.4,10-8.9,20-13.4,29.9c-0.7,1.5-1.3,3.1-2.2,4.4
		c-0.4,0.6-1.4,1.2-2.1,1.2c-9.5,0.1-19,0-28.5,0.1c-1.6,0-2.4-0.9-3-2.2c-4.1-7.9-8.2-15.7-12.3-23.6c-0.3-0.5-0.5-0.9-1-1.7
		c-9.4,6.4-18.6,12.8-27.9,19.1c0,0.1,0.1,0.3,0.1,0.4c0.8,0,1.6,0,2.4,0c8.3,0,16.7,0,25,0c2.8,0,3.1,0.4,2,2.8c-2.7,6-1.6,5-7.7,5
		c-13.1,0-26.1,0-39.2,0c-0.6,0-1.3-0.4-1.9-0.5c0.4-0.6,0.7-1.4,1.2-1.8C34.9,111.7,47.5,103,60,94.3c7.1-4.9,14.3-9.8,21.3-14.8
		c3-2.1,6.2-1.4,9.3-1.4c0.6,0,1.4,1.2,1.9,2c2.4,4.5,4.8,9,7.2,13.5C99.9,94,100.2,94.4,100.7,95.1z"/>
	<path fill-rule="evenodd" clip-rule="evenodd" d="M131.3,91.9c0.5-1.1,0.9-2.1,1.4-3.1c0.2-0.3,0.8-0.6,1.2-0.6c4.3,0,8.5,0,12.8,0
		c0.5,0,1,0.3,1.6,0.5c-0.7,2.2-2.2,2.9-4.1,3.1c-2.7,0.2-5.4,0.1-8.1,0.2C134.6,91.9,133.1,91.9,131.3,91.9z"/>
</g>
</svg>
